<svg width="586" height="306" fill="none" xmlns="http://www.w3.org/2000/svg"><g clip-path="url(#a)"><g filter="url(#b)" fill="#292824"><path d="M6 3a3 3 0 1 1-6 0 3 3 0 0 1 6 0ZM26 3a3 3 0 1 1-6 0 3 3 0 0 1 6 0ZM46 3a3 3 0 1 1-6 0 3 3 0 0 1 6 0ZM66 3a3 3 0 1 1-6 0 3 3 0 0 1 6 0ZM86 3a3 3 0 1 1-6 0 3 3 0 0 1 6 0ZM106 3a3 3 0 1 1-6 0 3 3 0 0 1 6 0ZM126 3a3 3 0 1 1-6 0 3 3 0 0 1 6 0ZM146 3a3 3 0 1 1-6 0 3 3 0 0 1 6 0ZM166 3a3 3 0 1 1-6 0 3 3 0 0 1 6 0ZM186 3a3 3 0 1 1-6 0 3 3 0 0 1 6 0ZM206 3a3 3 0 1 1-6 0 3 3 0 0 1 6 0ZM226 3a3 3 0 1 1-6 0 3 3 0 0 1 6 0ZM246 3a3 3 0 1 1-6 0 3 3 0 0 1 6 0ZM266 3a3 3 0 1 1-6 0 3 3 0 0 1 6 0ZM286 3a3 3 0 1 1-6 0 3 3 0 0 1 6 0ZM306 3a3 3 0 1 1-6 0 3 3 0 0 1 6 0ZM326 3a3 3 0 1 1-6 0 3 3 0 0 1 6 0ZM346 3a3 3 0 1 1-6 0 3 3 0 0 1 6 0ZM366 3a3 3 0 1 1-6 0 3 3 0 0 1 6 0ZM386 3a3 3 0 1 1-6 0 3 3 0 0 1 6 0ZM406 3a3 3 0 1 1-6 0 3 3 0 0 1 6 0ZM426 3a3 3 0 1 1-6 0 3 3 0 0 1 6 0ZM446 3a3 3 0 1 1-6 0 3 3 0 0 1 6 0ZM466 3a3 3 0 1 1-6 0 3 3 0 0 1 6 0ZM486 3a3 3 0 1 1-6 0 3 3 0 0 1 6 0ZM506 3a3 3 0 1 1-6 0 3 3 0 0 1 6 0ZM526 3a3 3 0 1 1-6 0 3 3 0 0 1 6 0ZM546 3a3 3 0 1 1-6 0 3 3 0 0 1 6 0ZM566 3a3 3 0 1 1-6 0 3 3 0 0 1 6 0ZM586 3a3 3 0 1 1-6 0 3 3 0 0 1 6 0ZM6 23a3 3 0 1 1-6 0 3 3 0 0 1 6 0ZM26 23a3 3 0 1 1-6 0 3 3 0 0 1 6 0ZM46 23a3 3 0 1 1-6 0 3 3 0 0 1 6 0ZM66 23a3 3 0 1 1-6 0 3 3 0 0 1 6 0ZM86 23a3 3 0 1 1-6 0 3 3 0 0 1 6 0ZM106 23a3 3 0 1 1-6 0 3 3 0 0 1 6 0ZM126 23a3 3 0 1 1-6 0 3 3 0 0 1 6 0ZM146 23a3 3 0 1 1-6 0 3 3 0 0 1 6 0ZM166 23a3 3 0 1 1-6 0 3 3 0 0 1 6 0ZM186 23a3 3 0 1 1-6 0 3 3 0 0 1 6 0ZM206 23a3 3 0 1 1-6 0 3 3 0 0 1 6 0ZM226 23a3 3 0 1 1-6 0 3 3 0 0 1 6 0ZM246 23a3 3 0 1 1-6 0 3 3 0 0 1 6 0ZM266 23a3 3 0 1 1-6 0 3 3 0 0 1 6 0ZM286 23a3 3 0 1 1-6 0 3 3 0 0 1 6 0ZM306 23a3 3 0 1 1-6 0 3 3 0 0 1 6 0ZM326 23a3 3 0 1 1-6 0 3 3 0 0 1 6 0ZM346 23a3 3 0 1 1-6 0 3 3 0 0 1 6 0ZM366 23a3 3 0 1 1-6 0 3 3 0 0 1 6 0ZM386 23a3 3 0 1 1-6 0 3 3 0 0 1 6 0ZM406 23a3 3 0 1 1-6 0 3 3 0 0 1 6 0ZM426 23a3 3 0 1 1-6 0 3 3 0 0 1 6 0ZM446 23a3 3 0 1 1-6 0 3 3 0 0 1 6 0ZM466 23a3 3 0 1 1-6 0 3 3 0 0 1 6 0ZM486 23a3 3 0 1 1-6 0 3 3 0 0 1 6 0ZM506 23a3 3 0 1 1-6 0 3 3 0 0 1 6 0ZM526 23a3 3 0 1 1-6 0 3 3 0 0 1 6 0ZM546 23a3 3 0 1 1-6 0 3 3 0 0 1 6 0ZM566 23a3 3 0 1 1-6 0 3 3 0 0 1 6 0ZM586 23a3 3 0 1 1-6 0 3 3 0 0 1 6 0ZM6 43a3 3 0 1 1-6 0 3 3 0 0 1 6 0ZM26 43a3 3 0 1 1-6 0 3 3 0 0 1 6 0ZM46 43a3 3 0 1 1-6 0 3 3 0 0 1 6 0ZM66 43a3 3 0 1 1-6 0 3 3 0 0 1 6 0ZM86 43a3 3 0 1 1-6 0 3 3 0 0 1 6 0ZM106 43a3 3 0 1 1-6 0 3 3 0 0 1 6 0ZM126 43a3 3 0 1 1-6 0 3 3 0 0 1 6 0ZM146 43a3 3 0 1 1-6 0 3 3 0 0 1 6 0ZM166 43a3 3 0 1 1-6 0 3 3 0 0 1 6 0ZM186 43a3 3 0 1 1-6 0 3 3 0 0 1 6 0ZM206 43a3 3 0 1 1-6 0 3 3 0 0 1 6 0ZM226 43a3 3 0 1 1-6 0 3 3 0 0 1 6 0ZM246 43a3 3 0 1 1-6 0 3 3 0 0 1 6 0ZM266 43a3 3 0 1 1-6 0 3 3 0 0 1 6 0ZM286 43a3 3 0 1 1-6 0 3 3 0 0 1 6 0ZM306 43a3 3 0 1 1-6 0 3 3 0 0 1 6 0ZM326 43a3 3 0 1 1-6 0 3 3 0 0 1 6 0ZM346 43a3 3 0 1 1-6 0 3 3 0 0 1 6 0ZM366 43a3 3 0 1 1-6 0 3 3 0 0 1 6 0ZM386 43a3 3 0 1 1-6 0 3 3 0 0 1 6 0ZM406 43a3 3 0 1 1-6 0 3 3 0 0 1 6 0ZM426 43a3 3 0 1 1-6 0 3 3 0 0 1 6 0ZM446 43a3 3 0 1 1-6 0 3 3 0 0 1 6 0ZM466 43a3 3 0 1 1-6 0 3 3 0 0 1 6 0ZM486 43a3 3 0 1 1-6 0 3 3 0 0 1 6 0ZM506 43a3 3 0 1 1-6 0 3 3 0 0 1 6 0ZM526 43a3 3 0 1 1-6 0 3 3 0 0 1 6 0ZM546 43a3 3 0 1 1-6 0 3 3 0 0 1 6 0ZM566 43a3 3 0 1 1-6 0 3 3 0 0 1 6 0ZM586 43a3 3 0 1 1-6 0 3 3 0 0 1 6 0ZM6 63a3 3 0 1 1-6 0 3 3 0 0 1 6 0ZM26 63a3 3 0 1 1-6 0 3 3 0 0 1 6 0ZM46 63a3 3 0 1 1-6 0 3 3 0 0 1 6 0ZM66 63a3 3 0 1 1-6 0 3 3 0 0 1 6 0ZM86 63a3 3 0 1 1-6 0 3 3 0 0 1 6 0ZM106 63a3 3 0 1 1-6 0 3 3 0 0 1 6 0ZM126 63a3 3 0 1 1-6 0 3 3 0 0 1 6 0ZM146 63a3 3 0 1 1-6 0 3 3 0 0 1 6 0ZM166 63a3 3 0 1 1-6 0 3 3 0 0 1 6 0ZM186 63a3 3 0 1 1-6 0 3 3 0 0 1 6 0ZM206 63a3 3 0 1 1-6 0 3 3 0 0 1 6 0ZM226 63a3 3 0 1 1-6 0 3 3 0 0 1 6 0ZM246 63a3 3 0 1 1-6 0 3 3 0 0 1 6 0ZM266 63a3 3 0 1 1-6 0 3 3 0 0 1 6 0ZM286 63a3 3 0 1 1-6 0 3 3 0 0 1 6 0ZM306 63a3 3 0 1 1-6 0 3 3 0 0 1 6 0ZM326 63a3 3 0 1 1-6 0 3 3 0 0 1 6 0ZM346 63a3 3 0 1 1-6 0 3 3 0 0 1 6 0ZM366 63a3 3 0 1 1-6 0 3 3 0 0 1 6 0ZM386 63a3 3 0 1 1-6 0 3 3 0 0 1 6 0ZM406 63a3 3 0 1 1-6 0 3 3 0 0 1 6 0ZM426 63a3 3 0 1 1-6 0 3 3 0 0 1 6 0ZM446 63a3 3 0 1 1-6 0 3 3 0 0 1 6 0ZM466 63a3 3 0 1 1-6 0 3 3 0 0 1 6 0ZM486 63a3 3 0 1 1-6 0 3 3 0 0 1 6 0ZM506 63a3 3 0 1 1-6 0 3 3 0 0 1 6 0ZM526 63a3 3 0 1 1-6 0 3 3 0 0 1 6 0ZM546 63a3 3 0 1 1-6 0 3 3 0 0 1 6 0ZM566 63a3 3 0 1 1-6 0 3 3 0 0 1 6 0ZM586 63a3 3 0 1 1-6 0 3 3 0 0 1 6 0ZM6 83a3 3 0 1 1-6 0 3 3 0 0 1 6 0ZM26 83a3 3 0 1 1-6 0 3 3 0 0 1 6 0ZM46 83a3 3 0 1 1-6 0 3 3 0 0 1 6 0ZM66 83a3 3 0 1 1-6 0 3 3 0 0 1 6 0ZM86 83a3 3 0 1 1-6 0 3 3 0 0 1 6 0ZM106 83a3 3 0 1 1-6 0 3 3 0 0 1 6 0ZM126 83a3 3 0 1 1-6 0 3 3 0 0 1 6 0ZM146 83a3 3 0 1 1-6 0 3 3 0 0 1 6 0ZM166 83a3 3 0 1 1-6 0 3 3 0 0 1 6 0ZM186 83a3 3 0 1 1-6 0 3 3 0 0 1 6 0ZM206 83a3 3 0 1 1-6 0 3 3 0 0 1 6 0ZM226 83a3 3 0 1 1-6 0 3 3 0 0 1 6 0ZM246 83a3 3 0 1 1-6 0 3 3 0 0 1 6 0ZM266 83a3 3 0 1 1-6 0 3 3 0 0 1 6 0ZM286 83a3 3 0 1 1-6 0 3 3 0 0 1 6 0ZM306 83a3 3 0 1 1-6 0 3 3 0 0 1 6 0ZM326 83a3 3 0 1 1-6 0 3 3 0 0 1 6 0ZM346 83a3 3 0 1 1-6 0 3 3 0 0 1 6 0ZM366 83a3 3 0 1 1-6 0 3 3 0 0 1 6 0ZM386 83a3 3 0 1 1-6 0 3 3 0 0 1 6 0ZM406 83a3 3 0 1 1-6 0 3 3 0 0 1 6 0ZM426 83a3 3 0 1 1-6 0 3 3 0 0 1 6 0ZM446 83a3 3 0 1 1-6 0 3 3 0 0 1 6 0ZM466 83a3 3 0 1 1-6 0 3 3 0 0 1 6 0ZM486 83a3 3 0 1 1-6 0 3 3 0 0 1 6 0ZM506 83a3 3 0 1 1-6 0 3 3 0 0 1 6 0ZM526 83a3 3 0 1 1-6 0 3 3 0 0 1 6 0ZM546 83a3 3 0 1 1-6 0 3 3 0 0 1 6 0ZM566 83a3 3 0 1 1-6 0 3 3 0 0 1 6 0ZM586 83a3 3 0 1 1-6 0 3 3 0 0 1 6 0ZM6 103a3 3 0 1 1-6 0 3 3 0 0 1 6 0ZM26 103a3 3 0 1 1-6 0 3 3 0 0 1 6 0ZM46 103a3 3 0 1 1-6 0 3 3 0 0 1 6 0ZM66 103a3 3 0 1 1-6 0 3 3 0 0 1 6 0ZM86 103a3 3 0 1 1-6 0 3 3 0 0 1 6 0ZM106 103a3 3 0 1 1-6 0 3 3 0 0 1 6 0ZM126 103a3 3 0 1 1-6 0 3 3 0 0 1 6 0ZM146 103a3 3 0 1 1-6 0 3 3 0 0 1 6 0ZM166 103a3 3 0 1 1-6 0 3 3 0 0 1 6 0ZM186 103a3 3 0 1 1-6 0 3 3 0 0 1 6 0ZM206 103a3 3 0 1 1-6 0 3 3 0 0 1 6 0ZM226 103a3 3 0 1 1-6 0 3 3 0 0 1 6 0ZM246 103a3 3 0 1 1-6 0 3 3 0 0 1 6 0ZM266 103a3 3 0 1 1-6 0 3 3 0 0 1 6 0ZM286 103a3 3 0 1 1-6 0 3 3 0 0 1 6 0ZM306 103a3 3 0 1 1-6 0 3 3 0 0 1 6 0ZM326 103a3 3 0 1 1-6 0 3 3 0 0 1 6 0ZM346 103a3 3 0 1 1-6 0 3 3 0 0 1 6 0ZM366 103a3 3 0 1 1-6 0 3 3 0 0 1 6 0ZM386 103a3 3 0 1 1-6 0 3 3 0 0 1 6 0ZM406 103a3 3 0 1 1-6 0 3 3 0 0 1 6 0ZM426 103a3 3 0 1 1-6 0 3 3 0 0 1 6 0ZM446 103a3 3 0 1 1-6 0 3 3 0 0 1 6 0ZM466 103a3 3 0 1 1-6 0 3 3 0 0 1 6 0ZM486 103a3 3 0 1 1-6 0 3 3 0 0 1 6 0ZM506 103a3 3 0 1 1-6 0 3 3 0 0 1 6 0ZM526 103a3 3 0 1 1-6 0 3 3 0 0 1 6 0ZM546 103a3 3 0 1 1-6 0 3 3 0 0 1 6 0ZM566 103a3 3 0 1 1-6 0 3 3 0 0 1 6 0ZM586 103a3 3 0 1 1-6 0 3 3 0 0 1 6 0ZM6 123a3 3 0 1 1-6 0 3 3 0 0 1 6 0ZM26 123a3 3 0 1 1-6 0 3 3 0 0 1 6 0ZM46 123a3 3 0 1 1-6 0 3 3 0 0 1 6 0ZM66 123a3 3 0 1 1-6 0 3 3 0 0 1 6 0ZM86 123a3 3 0 1 1-6 0 3 3 0 0 1 6 0ZM106 123a3 3 0 1 1-6 0 3 3 0 0 1 6 0ZM126 123a3 3 0 1 1-6 0 3 3 0 0 1 6 0ZM146 123a3 3 0 1 1-6 0 3 3 0 0 1 6 0ZM166 123a3 3 0 1 1-6 0 3 3 0 0 1 6 0ZM186 123a3 3 0 1 1-6 0 3 3 0 0 1 6 0ZM206 123a3 3 0 1 1-6 0 3 3 0 0 1 6 0ZM226 123a3 3 0 1 1-6 0 3 3 0 0 1 6 0ZM246 123a3 3 0 1 1-6 0 3 3 0 0 1 6 0ZM266 123a3 3 0 1 1-6 0 3 3 0 0 1 6 0ZM286 123a3 3 0 1 1-6 0 3 3 0 0 1 6 0ZM306 123a3 3 0 1 1-6 0 3 3 0 0 1 6 0ZM326 123a3 3 0 1 1-6 0 3 3 0 0 1 6 0ZM346 123a3 3 0 1 1-6 0 3 3 0 0 1 6 0ZM366 123a3 3 0 1 1-6 0 3 3 0 0 1 6 0ZM386 123a3 3 0 1 1-6 0 3 3 0 0 1 6 0ZM406 123a3 3 0 1 1-6 0 3 3 0 0 1 6 0ZM426 123a3 3 0 1 1-6 0 3 3 0 0 1 6 0ZM446 123a3 3 0 1 1-6 0 3 3 0 0 1 6 0ZM466 123a3 3 0 1 1-6 0 3 3 0 0 1 6 0ZM486 123a3 3 0 1 1-6 0 3 3 0 0 1 6 0ZM506 123a3 3 0 1 1-6 0 3 3 0 0 1 6 0ZM526 123a3 3 0 1 1-6 0 3 3 0 0 1 6 0ZM546 123a3 3 0 1 1-6 0 3 3 0 0 1 6 0ZM566 123a3 3 0 1 1-6 0 3 3 0 0 1 6 0ZM586 123a3 3 0 1 1-6 0 3 3 0 0 1 6 0ZM6 143a3 3 0 1 1-6 0 3 3 0 0 1 6 0ZM26 143a3 3 0 1 1-6 0 3 3 0 0 1 6 0ZM46 143a3 3 0 1 1-6 0 3 3 0 0 1 6 0ZM66 143a3 3 0 1 1-6 0 3 3 0 0 1 6 0ZM86 143a3 3 0 1 1-6 0 3 3 0 0 1 6 0ZM106 143a3 3 0 1 1-6 0 3 3 0 0 1 6 0ZM126 143a3 3 0 1 1-6 0 3 3 0 0 1 6 0ZM146 143a3 3 0 1 1-6 0 3 3 0 0 1 6 0ZM166 143a3 3 0 1 1-6 0 3 3 0 0 1 6 0ZM186 143a3 3 0 1 1-6 0 3 3 0 0 1 6 0ZM206 143a3 3 0 1 1-6 0 3 3 0 0 1 6 0ZM226 143a3 3 0 1 1-6 0 3 3 0 0 1 6 0ZM246 143a3 3 0 1 1-6 0 3 3 0 0 1 6 0ZM266 143a3 3 0 1 1-6 0 3 3 0 0 1 6 0ZM286 143a3 3 0 1 1-6 0 3 3 0 0 1 6 0ZM306 143a3 3 0 1 1-6 0 3 3 0 0 1 6 0ZM326 143a3 3 0 1 1-6 0 3 3 0 0 1 6 0ZM346 143a3 3 0 1 1-6 0 3 3 0 0 1 6 0ZM366 143a3 3 0 1 1-6 0 3 3 0 0 1 6 0ZM386 143a3 3 0 1 1-6 0 3 3 0 0 1 6 0ZM406 143a3 3 0 1 1-6 0 3 3 0 0 1 6 0ZM426 143a3 3 0 1 1-6 0 3 3 0 0 1 6 0ZM446 143a3 3 0 1 1-6 0 3 3 0 0 1 6 0ZM466 143a3 3 0 1 1-6 0 3 3 0 0 1 6 0ZM486 143a3 3 0 1 1-6 0 3 3 0 0 1 6 0ZM506 143a3 3 0 1 1-6 0 3 3 0 0 1 6 0ZM526 143a3 3 0 1 1-6 0 3 3 0 0 1 6 0ZM546 143a3 3 0 1 1-6 0 3 3 0 0 1 6 0ZM566 143a3 3 0 1 1-6 0 3 3 0 0 1 6 0ZM586 143a3 3 0 1 1-6 0 3 3 0 0 1 6 0ZM6 163a3 3 0 1 1-6 0 3 3 0 0 1 6 0ZM26 163a3 3 0 1 1-6 0 3 3 0 0 1 6 0ZM46 163a3 3 0 1 1-6 0 3 3 0 0 1 6 0ZM66 163a3 3 0 1 1-6 0 3 3 0 0 1 6 0ZM86 163a3 3 0 1 1-6 0 3 3 0 0 1 6 0ZM106 163a3 3 0 1 1-6 0 3 3 0 0 1 6 0ZM126 163a3 3 0 1 1-6 0 3 3 0 0 1 6 0ZM146 163a3 3 0 1 1-6 0 3 3 0 0 1 6 0ZM166 163a3 3 0 1 1-6 0 3 3 0 0 1 6 0ZM186 163a3 3 0 1 1-6 0 3 3 0 0 1 6 0ZM206 163a3 3 0 1 1-6 0 3 3 0 0 1 6 0ZM226 163a3 3 0 1 1-6 0 3 3 0 0 1 6 0ZM246 163a3 3 0 1 1-6 0 3 3 0 0 1 6 0ZM266 163a3 3 0 1 1-6 0 3 3 0 0 1 6 0ZM286 163a3 3 0 1 1-6 0 3 3 0 0 1 6 0ZM306 163a3 3 0 1 1-6 0 3 3 0 0 1 6 0ZM326 163a3 3 0 1 1-6 0 3 3 0 0 1 6 0ZM346 163a3 3 0 1 1-6 0 3 3 0 0 1 6 0ZM366 163a3 3 0 1 1-6 0 3 3 0 0 1 6 0ZM386 163a3 3 0 1 1-6 0 3 3 0 0 1 6 0ZM406 163a3 3 0 1 1-6 0 3 3 0 0 1 6 0ZM426 163a3 3 0 1 1-6 0 3 3 0 0 1 6 0ZM446 163a3 3 0 1 1-6 0 3 3 0 0 1 6 0ZM466 163a3 3 0 1 1-6 0 3 3 0 0 1 6 0ZM486 163a3 3 0 1 1-6 0 3 3 0 0 1 6 0ZM506 163a3 3 0 1 1-6 0 3 3 0 0 1 6 0ZM526 163a3 3 0 1 1-6 0 3 3 0 0 1 6 0ZM546 163a3 3 0 1 1-6 0 3 3 0 0 1 6 0ZM566 163a3 3 0 1 1-6 0 3 3 0 0 1 6 0ZM586 163a3 3 0 1 1-6 0 3 3 0 0 1 6 0ZM6 183a3 3 0 1 1-6 0 3 3 0 0 1 6 0ZM26 183a3 3 0 1 1-6 0 3 3 0 0 1 6 0ZM46 183a3 3 0 1 1-6 0 3 3 0 0 1 6 0ZM66 183a3 3 0 1 1-6 0 3 3 0 0 1 6 0ZM86 183a3 3 0 1 1-6 0 3 3 0 0 1 6 0ZM106 183a3 3 0 1 1-6 0 3 3 0 0 1 6 0ZM126 183a3 3 0 1 1-6 0 3 3 0 0 1 6 0ZM146 183a3 3 0 1 1-6 0 3 3 0 0 1 6 0ZM166 183a3 3 0 1 1-6 0 3 3 0 0 1 6 0ZM186 183a3 3 0 1 1-6 0 3 3 0 0 1 6 0ZM206 183a3 3 0 1 1-6 0 3 3 0 0 1 6 0ZM226 183a3 3 0 1 1-6 0 3 3 0 0 1 6 0ZM246 183a3 3 0 1 1-6 0 3 3 0 0 1 6 0ZM266 183a3 3 0 1 1-6 0 3 3 0 0 1 6 0ZM286 183a3 3 0 1 1-6 0 3 3 0 0 1 6 0ZM306 183a3 3 0 1 1-6 0 3 3 0 0 1 6 0ZM326 183a3 3 0 1 1-6 0 3 3 0 0 1 6 0ZM346 183a3 3 0 1 1-6 0 3 3 0 0 1 6 0ZM366 183a3 3 0 1 1-6 0 3 3 0 0 1 6 0ZM386 183a3 3 0 1 1-6 0 3 3 0 0 1 6 0ZM406 183a3 3 0 1 1-6 0 3 3 0 0 1 6 0ZM426 183a3 3 0 1 1-6 0 3 3 0 0 1 6 0ZM446 183a3 3 0 1 1-6 0 3 3 0 0 1 6 0ZM466 183a3 3 0 1 1-6 0 3 3 0 0 1 6 0ZM486 183a3 3 0 1 1-6 0 3 3 0 0 1 6 0ZM506 183a3 3 0 1 1-6 0 3 3 0 0 1 6 0ZM526 183a3 3 0 1 1-6 0 3 3 0 0 1 6 0ZM546 183a3 3 0 1 1-6 0 3 3 0 0 1 6 0ZM566 183a3 3 0 1 1-6 0 3 3 0 0 1 6 0ZM586 183a3 3 0 1 1-6 0 3 3 0 0 1 6 0ZM6 203a3 3 0 1 1-6 0 3 3 0 0 1 6 0ZM26 203a3 3 0 1 1-6 0 3 3 0 0 1 6 0ZM46 203a3 3 0 1 1-6 0 3 3 0 0 1 6 0ZM66 203a3 3 0 1 1-6 0 3 3 0 0 1 6 0ZM86 203a3 3 0 1 1-6 0 3 3 0 0 1 6 0ZM106 203a3 3 0 1 1-6 0 3 3 0 0 1 6 0ZM126 203a3 3 0 1 1-6 0 3 3 0 0 1 6 0ZM146 203a3 3 0 1 1-6 0 3 3 0 0 1 6 0ZM166 203a3 3 0 1 1-6 0 3 3 0 0 1 6 0ZM186 203a3 3 0 1 1-6 0 3 3 0 0 1 6 0ZM206 203a3 3 0 1 1-6 0 3 3 0 0 1 6 0ZM226 203a3 3 0 1 1-6 0 3 3 0 0 1 6 0ZM246 203a3 3 0 1 1-6 0 3 3 0 0 1 6 0ZM266 203a3 3 0 1 1-6 0 3 3 0 0 1 6 0ZM286 203a3 3 0 1 1-6 0 3 3 0 0 1 6 0ZM306 203a3 3 0 1 1-6 0 3 3 0 0 1 6 0ZM326 203a3 3 0 1 1-6 0 3 3 0 0 1 6 0ZM346 203a3 3 0 1 1-6 0 3 3 0 0 1 6 0ZM366 203a3 3 0 1 1-6 0 3 3 0 0 1 6 0ZM386 203a3 3 0 1 1-6 0 3 3 0 0 1 6 0ZM406 203a3 3 0 1 1-6 0 3 3 0 0 1 6 0ZM426 203a3 3 0 1 1-6 0 3 3 0 0 1 6 0ZM446 203a3 3 0 1 1-6 0 3 3 0 0 1 6 0ZM466 203a3 3 0 1 1-6 0 3 3 0 0 1 6 0ZM486 203a3 3 0 1 1-6 0 3 3 0 0 1 6 0ZM506 203a3 3 0 1 1-6 0 3 3 0 0 1 6 0ZM526 203a3 3 0 1 1-6 0 3 3 0 0 1 6 0ZM546 203a3 3 0 1 1-6 0 3 3 0 0 1 6 0ZM566 203a3 3 0 1 1-6 0 3 3 0 0 1 6 0ZM586 203a3 3 0 1 1-6 0 3 3 0 0 1 6 0ZM6 223a3 3 0 1 1-6 0 3 3 0 0 1 6 0ZM26 223a3 3 0 1 1-6 0 3 3 0 0 1 6 0ZM46 223a3 3 0 1 1-6 0 3 3 0 0 1 6 0ZM66 223a3 3 0 1 1-6 0 3 3 0 0 1 6 0ZM86 223a3 3 0 1 1-6 0 3 3 0 0 1 6 0ZM106 223a3 3 0 1 1-6 0 3 3 0 0 1 6 0ZM126 223a3 3 0 1 1-6 0 3 3 0 0 1 6 0ZM146 223a3 3 0 1 1-6 0 3 3 0 0 1 6 0ZM166 223a3 3 0 1 1-6 0 3 3 0 0 1 6 0ZM186 223a3 3 0 1 1-6 0 3 3 0 0 1 6 0ZM206 223a3 3 0 1 1-6 0 3 3 0 0 1 6 0ZM226 223a3 3 0 1 1-6 0 3 3 0 0 1 6 0ZM246 223a3 3 0 1 1-6 0 3 3 0 0 1 6 0ZM266 223a3 3 0 1 1-6 0 3 3 0 0 1 6 0ZM286 223a3 3 0 1 1-6 0 3 3 0 0 1 6 0ZM306 223a3 3 0 1 1-6 0 3 3 0 0 1 6 0ZM326 223a3 3 0 1 1-6 0 3 3 0 0 1 6 0ZM346 223a3 3 0 1 1-6 0 3 3 0 0 1 6 0ZM366 223a3 3 0 1 1-6 0 3 3 0 0 1 6 0ZM386 223a3 3 0 1 1-6 0 3 3 0 0 1 6 0ZM406 223a3 3 0 1 1-6 0 3 3 0 0 1 6 0ZM426 223a3 3 0 1 1-6 0 3 3 0 0 1 6 0ZM446 223a3 3 0 1 1-6 0 3 3 0 0 1 6 0ZM466 223a3 3 0 1 1-6 0 3 3 0 0 1 6 0ZM486 223a3 3 0 1 1-6 0 3 3 0 0 1 6 0ZM506 223a3 3 0 1 1-6 0 3 3 0 0 1 6 0ZM526 223a3 3 0 1 1-6 0 3 3 0 0 1 6 0ZM546 223a3 3 0 1 1-6 0 3 3 0 0 1 6 0ZM566 223a3 3 0 1 1-6 0 3 3 0 0 1 6 0ZM586 223a3 3 0 1 1-6 0 3 3 0 0 1 6 0ZM6 243a3 3 0 1 1-6 0 3 3 0 0 1 6 0ZM26 243a3 3 0 1 1-6 0 3 3 0 0 1 6 0ZM46 243a3 3 0 1 1-6 0 3 3 0 0 1 6 0ZM66 243a3 3 0 1 1-6 0 3 3 0 0 1 6 0ZM86 243a3 3 0 1 1-6 0 3 3 0 0 1 6 0ZM106 243a3 3 0 1 1-6 0 3 3 0 0 1 6 0ZM126 243a3 3 0 1 1-6 0 3 3 0 0 1 6 0ZM146 243a3 3 0 1 1-6 0 3 3 0 0 1 6 0ZM166 243a3 3 0 1 1-6 0 3 3 0 0 1 6 0ZM186 243a3 3 0 1 1-6 0 3 3 0 0 1 6 0ZM206 243a3 3 0 1 1-6 0 3 3 0 0 1 6 0ZM226 243a3 3 0 1 1-6 0 3 3 0 0 1 6 0ZM246 243a3 3 0 1 1-6 0 3 3 0 0 1 6 0ZM266 243a3 3 0 1 1-6 0 3 3 0 0 1 6 0ZM286 243a3 3 0 1 1-6 0 3 3 0 0 1 6 0ZM306 243a3 3 0 1 1-6 0 3 3 0 0 1 6 0ZM326 243a3 3 0 1 1-6 0 3 3 0 0 1 6 0ZM346 243a3 3 0 1 1-6 0 3 3 0 0 1 6 0ZM366 243a3 3 0 1 1-6 0 3 3 0 0 1 6 0ZM386 243a3 3 0 1 1-6 0 3 3 0 0 1 6 0ZM406 243a3 3 0 1 1-6 0 3 3 0 0 1 6 0ZM426 243a3 3 0 1 1-6 0 3 3 0 0 1 6 0ZM446 243a3 3 0 1 1-6 0 3 3 0 0 1 6 0ZM466 243a3 3 0 1 1-6 0 3 3 0 0 1 6 0ZM486 243a3 3 0 1 1-6 0 3 3 0 0 1 6 0ZM506 243a3 3 0 1 1-6 0 3 3 0 0 1 6 0ZM526 243a3 3 0 1 1-6 0 3 3 0 0 1 6 0ZM546 243a3 3 0 1 1-6 0 3 3 0 0 1 6 0ZM566 243a3 3 0 1 1-6 0 3 3 0 0 1 6 0ZM586 243a3 3 0 1 1-6 0 3 3 0 0 1 6 0ZM6 263a3 3 0 1 1-6 0 3 3 0 0 1 6 0ZM26 263a3 3 0 1 1-6 0 3 3 0 0 1 6 0ZM46 263a3 3 0 1 1-6 0 3 3 0 0 1 6 0ZM66 263a3 3 0 1 1-6 0 3 3 0 0 1 6 0ZM86 263a3 3 0 1 1-6 0 3 3 0 0 1 6 0ZM106 263a3 3 0 1 1-6 0 3 3 0 0 1 6 0ZM126 263a3 3 0 1 1-6 0 3 3 0 0 1 6 0ZM146 263a3 3 0 1 1-6 0 3 3 0 0 1 6 0ZM166 263a3 3 0 1 1-6 0 3 3 0 0 1 6 0ZM186 263a3 3 0 1 1-6 0 3 3 0 0 1 6 0ZM206 263a3 3 0 1 1-6 0 3 3 0 0 1 6 0ZM226 263a3 3 0 1 1-6 0 3 3 0 0 1 6 0ZM246 263a3 3 0 1 1-6 0 3 3 0 0 1 6 0ZM266 263a3 3 0 1 1-6 0 3 3 0 0 1 6 0ZM286 263a3 3 0 1 1-6 0 3 3 0 0 1 6 0ZM306 263a3 3 0 1 1-6 0 3 3 0 0 1 6 0ZM326 263a3 3 0 1 1-6 0 3 3 0 0 1 6 0ZM346 263a3 3 0 1 1-6 0 3 3 0 0 1 6 0ZM366 263a3 3 0 1 1-6 0 3 3 0 0 1 6 0ZM386 263a3 3 0 1 1-6 0 3 3 0 0 1 6 0ZM406 263a3 3 0 1 1-6 0 3 3 0 0 1 6 0ZM426 263a3 3 0 1 1-6 0 3 3 0 0 1 6 0ZM446 263a3 3 0 1 1-6 0 3 3 0 0 1 6 0ZM466 263a3 3 0 1 1-6 0 3 3 0 0 1 6 0ZM486 263a3 3 0 1 1-6 0 3 3 0 0 1 6 0ZM506 263a3 3 0 1 1-6 0 3 3 0 0 1 6 0ZM526 263a3 3 0 1 1-6 0 3 3 0 0 1 6 0ZM546 263a3 3 0 1 1-6 0 3 3 0 0 1 6 0ZM566 263a3 3 0 1 1-6 0 3 3 0 0 1 6 0ZM586 263a3 3 0 1 1-6 0 3 3 0 0 1 6 0ZM6 283a3 3 0 1 1-6 0 3 3 0 0 1 6 0ZM26 283a3 3 0 1 1-6 0 3 3 0 0 1 6 0ZM46 283a3 3 0 1 1-6 0 3 3 0 0 1 6 0ZM66 283a3 3 0 1 1-6 0 3 3 0 0 1 6 0ZM86 283a3 3 0 1 1-6 0 3 3 0 0 1 6 0ZM106 283a3 3 0 1 1-6 0 3 3 0 0 1 6 0ZM126 283a3 3 0 1 1-6 0 3 3 0 0 1 6 0ZM146 283a3 3 0 1 1-6 0 3 3 0 0 1 6 0ZM166 283a3 3 0 1 1-6 0 3 3 0 0 1 6 0ZM186 283a3 3 0 1 1-6 0 3 3 0 0 1 6 0ZM206 283a3 3 0 1 1-6 0 3 3 0 0 1 6 0ZM226 283a3 3 0 1 1-6 0 3 3 0 0 1 6 0ZM246 283a3 3 0 1 1-6 0 3 3 0 0 1 6 0ZM266 283a3 3 0 1 1-6 0 3 3 0 0 1 6 0ZM286 283a3 3 0 1 1-6 0 3 3 0 0 1 6 0ZM306 283a3 3 0 1 1-6 0 3 3 0 0 1 6 0ZM326 283a3 3 0 1 1-6 0 3 3 0 0 1 6 0ZM346 283a3 3 0 1 1-6 0 3 3 0 0 1 6 0ZM366 283a3 3 0 1 1-6 0 3 3 0 0 1 6 0ZM386 283a3 3 0 1 1-6 0 3 3 0 0 1 6 0ZM406 283a3 3 0 1 1-6 0 3 3 0 0 1 6 0ZM426 283a3 3 0 1 1-6 0 3 3 0 0 1 6 0ZM446 283a3 3 0 1 1-6 0 3 3 0 0 1 6 0ZM466 283a3 3 0 1 1-6 0 3 3 0 0 1 6 0ZM486 283a3 3 0 1 1-6 0 3 3 0 0 1 6 0ZM506 283a3 3 0 1 1-6 0 3 3 0 0 1 6 0ZM526 283a3 3 0 1 1-6 0 3 3 0 0 1 6 0ZM546 283a3 3 0 1 1-6 0 3 3 0 0 1 6 0ZM566 283a3 3 0 1 1-6 0 3 3 0 0 1 6 0ZM586 283a3 3 0 1 1-6 0 3 3 0 0 1 6 0ZM6 303a3 3 0 1 1-6 0 3 3 0 0 1 6 0ZM26 303a3 3 0 1 1-6 0 3 3 0 0 1 6 0ZM46 303a3 3 0 1 1-6 0 3 3 0 0 1 6 0ZM66 303a3 3 0 1 1-6 0 3 3 0 0 1 6 0ZM86 303a3 3 0 1 1-6 0 3 3 0 0 1 6 0ZM106 303a3 3 0 1 1-6 0 3 3 0 0 1 6 0ZM126 303a3 3 0 1 1-6 0 3 3 0 0 1 6 0ZM146 303a3 3 0 1 1-6 0 3 3 0 0 1 6 0ZM166 303a3 3 0 1 1-6 0 3 3 0 0 1 6 0ZM186 303a3 3 0 1 1-6 0 3 3 0 0 1 6 0ZM206 303a3 3 0 1 1-6 0 3 3 0 0 1 6 0ZM226 303a3 3 0 1 1-6 0 3 3 0 0 1 6 0ZM246 303a3 3 0 1 1-6 0 3 3 0 0 1 6 0ZM266 303a3 3 0 1 1-6 0 3 3 0 0 1 6 0ZM286 303a3 3 0 1 1-6 0 3 3 0 0 1 6 0ZM306 303a3 3 0 1 1-6 0 3 3 0 0 1 6 0ZM326 303a3 3 0 1 1-6 0 3 3 0 0 1 6 0ZM346 303a3 3 0 1 1-6 0 3 3 0 0 1 6 0ZM366 303a3 3 0 1 1-6 0 3 3 0 0 1 6 0ZM386 303a3 3 0 1 1-6 0 3 3 0 0 1 6 0ZM406 303a3 3 0 1 1-6 0 3 3 0 0 1 6 0ZM426 303a3 3 0 1 1-6 0 3 3 0 0 1 6 0ZM446 303a3 3 0 1 1-6 0 3 3 0 0 1 6 0ZM466 303a3 3 0 1 1-6 0 3 3 0 0 1 6 0ZM486 303a3 3 0 1 1-6 0 3 3 0 0 1 6 0ZM506 303a3 3 0 1 1-6 0 3 3 0 0 1 6 0ZM526 303a3 3 0 1 1-6 0 3 3 0 0 1 6 0ZM546 303a3 3 0 1 1-6 0 3 3 0 0 1 6 0ZM566 303a3 3 0 1 1-6 0 3 3 0 0 1 6 0ZM586 303a3 3 0 1 1-6 0 3 3 0 0 1 6 0Z"/></g><path fill="url(#c)" d="M0 0h586v306H0z"/></g><defs><radialGradient id="c" cx="0" cy="0" r="1" gradientUnits="userSpaceOnUse" gradientTransform="matrix(0 207 -396.412 0 293 153)"><stop stop-color="#393632" stop-opacity="0"/><stop offset="1" stop-color="#393632"/></radialGradient><clipPath id="a"><path fill="#fff" d="M0 0h586v306H0z"/></clipPath><filter id="b" x="0" y="0" width="586" height="307" filterUnits="userSpaceOnUse" color-interpolation-filters="sRGB"><feFlood flood-opacity="0" result="BackgroundImageFix"/><feColorMatrix in="SourceAlpha" values="0 0 0 0 0 0 0 0 0 0 0 0 0 0 0 0 0 0 127 0" result="hardAlpha"/><feOffset dy="1"/><feComposite in2="hardAlpha" operator="out"/><feColorMatrix values="0 0 0 0 0.337255 0 0 0 0 0.321569 0 0 0 0 0.301961 0 0 0 1 0"/><feBlend in2="BackgroundImageFix" result="effect1_dropShadow_1461_21410"/><feBlend in="SourceGraphic" in2="effect1_dropShadow_1461_21410" result="shape"/></filter></defs></svg>