<svg xmlns="http://www.w3.org/2000/svg" viewBox="0 0 256 259" preserveAspectRatio="xMidYMid">
  <path d="M127.779 0C60.42 0 5.24 52.412 0 119.014l68.724 28.674a35.45 35.45 0 0 1 20.426-6.366c.682 0 1.356.019 2.02.056l30.566-44.71v-.626c0-26.903 21.69-48.796 48.353-48.796 26.662 0 48.353 21.893 48.353 48.796 0 26.902-21.691 48.804-48.353 48.804-.37 0-.73-.008-1.098-.015l-43.593 31.377c.028.568.046 1.14.046 1.718 0 20.2-16.236 36.59-36.245 36.59-17.497 0-32.114-12.48-35.54-29.157l-49.085-20.446C22.274 211.645 70.345 256 127.78 256c70.556 0 127.78-57.308 127.78-128.002C255.56 57.308 198.335 0 127.78 0ZM80.468 196.406l-15.446-6.436c2.732 5.688 7.4 10.372 13.44 13.13 13.01 5.93 28.3-.79 34.17-15 2.83-6.863 2.83-14.366 0-21.229-2.825-6.867-8.365-12.323-15.187-15.095-6.783-2.775-14.126-2.776-20.635-.299l15.97 6.657c9.561 4.159 13.97 15.292 9.845 24.91-4.128 9.618-15.192 14.05-24.655 9.89l-.032-.013v-.003Zm104.258-77.862c0-17.983-14.482-32.55-32.331-32.55-17.85 0-32.33 14.567-32.33 32.55 0 17.982 14.48 32.549 32.33 32.549 17.85 0 32.33-14.567 32.33-32.55Zm-56.698.066c0-13.536 10.833-24.527 24.192-24.527 13.358 0 24.193 10.991 24.193 24.527s-10.835 24.528-24.193 24.528c-13.359 0-24.192-10.992-24.192-24.528Z" fill="#FFFFFF"/>
</svg> 