<svg width="40" height="163" xmlns="http://www.w3.org/2000/svg"><g fill="#56524D" fill-rule="evenodd"><path d="m21.012 48.955.012-.012.011.023L31 39.336l-2.503-2.407L21 44.174l-7.497-7.234L11 39.36 20.965 49l.047-.045Zm0-7.95.012-.01.011.022 5.805-5.61L24.337 33 21 36.225l-3.337-3.214-2.503 2.42 5.805 5.62.047-.045ZM21.012 130.955l.012-.012.011.023 9.965-9.63-2.503-2.407L21 126.174l-7.497-7.234L11 121.36l9.965 9.64.047-.045Zm0-7.95.012-.01.011.022 5.805-5.61L24.337 115 21 118.225l-3.337-3.214-2.503 2.42 5.805 5.62.047-.045ZM.012 88.955l.012-.012.011.023L10 79.336 7.497 76.93 0 84.174l-7.497-7.234L-10 79.36-.035 89l.047-.045Zm0-7.95.012-.01.011.022 5.805-5.61L3.337 73 0 76.225l-3.337-3.214-2.503 2.42 5.805 5.62.047-.045ZM41.012 88.955l.012-.012.011.023L51 79.336l-2.503-2.407L41 84.174l-7.497-7.234L31 79.36 40.965 89l.047-.045Zm0-7.95.012-.01.011.022 5.805-5.61L44.337 73 41 76.225l-3.337-3.214-2.503 2.42 5.805 5.62.047-.045ZM41.012 6.955l.012-.012.011.023L51-2.664 48.497-5.07 41 2.174 33.503-5.06 31-2.64 40.965 7l.047-.045Zm0-7.95.012-.01.011.022 5.805-5.61L44.337-9 41-5.775l-3.337-3.214-2.503 2.42 5.805 5.62.047-.045ZM.012 6.955l.012-.012.011.023L10-2.664 7.497-5.07 0 2.174-7.497-5.06-10-2.64-.035 7l.047-.045Zm0-7.95.012-.01.011.022 5.805-5.61L3.337-9 0-5.775l-3.337-3.214-2.503 2.42L-.035-.95l.047-.045ZM41.012 170.955l.012-.012.011.023 9.965-9.63-2.503-2.407L41 166.174l-7.497-7.234L31 161.36l9.965 9.64.047-.045Zm0-7.95.012-.01.011.022 5.805-5.61L44.337 155 41 158.225l-3.337-3.214-2.503 2.42 5.805 5.62.047-.045ZM.012 170.955l.012-.012.011.023 9.965-9.63-2.503-2.407L0 166.174l-7.497-7.234-2.503 2.42L-.035 171l.047-.045Zm0-7.95.012-.01.011.022 5.805-5.61L3.337 155 0 158.225l-3.337-3.214-2.503 2.42 5.805 5.62.047-.045Z"/></g></svg>
