<svg xmlns="http://www.w3.org/2000/svg" xmlns:xlink="http://www.w3.org/1999/xlink" width="50" height="56">
  <defs>
    <filter id="a" width="102%" height="113.5%" x="-1%" y="-4.8%" filterUnits="objectBoundingBox">
      <feMorphology in="SourceAlpha" operator="dilate" radius=".5" result="shadowSpreadOuter1"/>
      <feOffset dy="1" in="shadowSpreadOuter1" result="shadowOffsetOuter1"/>
      <feMorphology in="SourceAlpha" radius="1" result="shadowInner"/>
      <feOffset dy="1" in="shadowInner" result="shadowInner"/>
      <feComposite in="shadowOffsetOuter1" in2="shadowInner" operator="out" result="shadowOffsetOuter1"/>
      <feGaussianBlur in="shadowOffsetOuter1" result="shadowBlurOuter1" stdDeviation="1"/>
      <feColorMatrix in="shadowBlurOuter1" values="0 0 0 0 0 0 0 0 0 0 0 0 0 0 0 0 0 0 0.05 0"/>
    </filter>
    <path id="b" d="m249.625 122.18 19.267 11.124a3.253 3.253 0 0 1 1.625 2.815v22.247c0 1.161-.62 2.234-1.625 2.815l-19.267 11.123a3.248 3.248 0 0 1-3.25 0l-19.267-11.123a3.251 3.251 0 0 1-1.625-2.815V136.12c0-1.161.62-2.234 1.625-2.815l19.267-11.123a3.253 3.253 0 0 1 3.25 0z"/>
  </defs>
  <g transform="translate(-223 -120.243)" fill="none" fill-rule="evenodd">
    <use fill="#000" filter="url(#a)" xlink:href="#b"/>
    <use stroke="#7b776f" xlink:href="#b"/>
  </g>
</svg>
